<svg width="62" height="62" viewBox="0 0 62 62" fill="none" xmlns="http://www.w3.org/2000/svg">
<path d="M30.5786 0L30.4961 0.108587C30.4773 0.133032 30.4535 0.152947 30.4263 0.166866C30.3992 0.180786 30.3694 0.188356 30.3393 0.189021C29.0141 0.207119 27.6306 0.374022 26.3075 0.575109C17.7814 1.87413 10.3271 6.62581 5.49097 13.7584C5.46369 13.7991 5.45191 13.8482 5.45783 13.8966C5.46374 13.945 5.48694 13.9895 5.52315 14.0218C5.65721 14.1411 5.78456 14.1096 5.90521 13.9273C6.55808 12.9393 7.37114 11.903 8.3444 10.8185C8.92755 10.169 9.72788 9.58783 10.3975 8.93831C10.4097 8.92591 10.4253 8.91791 10.4411 8.91603C10.4569 8.91415 10.4716 8.91854 10.482 8.92826L10.5262 8.97049C10.5304 8.97458 10.5337 8.97951 10.5359 8.98495C10.5381 8.99039 10.5391 8.99624 10.5389 9.0021C10.5387 9.00797 10.5373 9.01373 10.5348 9.01902C10.5323 9.02431 10.5286 9.02901 10.5242 9.03283L10.2346 9.2681C10.0456 9.42226 10.0664 9.46047 10.297 9.38272C10.6616 9.25938 11.0021 9.35792 11.3185 9.67831C11.3424 9.70294 11.3722 9.72105 11.4049 9.73091C11.4376 9.74076 11.4723 9.74204 11.5055 9.73462L12.5371 9.50337C12.5849 9.4931 12.6272 9.46512 12.6557 9.42495C12.8648 9.13136 13.824 8.75734 14.1498 8.61456C14.1752 8.60372 14.2026 8.59813 14.2302 8.59813C14.2579 8.59813 14.2852 8.60372 14.3106 8.61456C14.4206 8.66282 14.4675 8.63266 14.4514 8.52408C14.6431 8.32701 14.8744 8.23384 15.1452 8.24457C11.1904 10.9753 8.16543 14.5004 6.07011 18.8197C6.01648 18.931 5.96688 18.9297 5.9213 18.8157C5.88645 18.7299 5.81137 18.7312 5.69608 18.8197C5.65599 18.852 5.60399 18.8672 5.5513 18.862C5.4025 18.8459 5.27782 18.878 5.17728 18.9585C5.04992 19.0604 4.98021 19.0295 4.96815 18.866C4.94134 18.4678 4.66518 18.3619 4.13967 18.5483C4.01768 18.5925 3.87089 18.7245 3.69929 18.9444C3.67866 18.9712 3.65161 18.9923 3.62064 19.0059C3.58967 19.0195 3.55578 19.025 3.5221 19.022C3.48843 19.019 3.45606 19.0075 3.42798 18.9887C3.3999 18.9699 3.37703 18.9443 3.36146 18.9142L3.22271 18.6428C3.22271 18.5302 3.18584 18.4497 3.11211 18.4015C3.09266 18.3886 3.07065 18.3802 3.04761 18.3767C3.02457 18.3732 3.00106 18.3748 2.97868 18.3813C2.95631 18.3878 2.93561 18.3991 2.91803 18.4144C2.90044 18.4297 2.88639 18.4486 2.87684 18.4698C1.22189 22.2221 0.389394 26.7144 0.628687 30.8628C0.630031 30.9009 0.620989 30.9385 0.602546 30.9714C0.375318 31.3836 0.61059 33.1391 0.664883 33.676C1.42499 41.3777 4.61959 47.8694 10.2487 53.1513C10.3935 53.288 10.4478 53.4818 10.4116 53.7324C3.4801 47.6757 -0.272164 38.6952 0.0153901 29.602C0.536205 13.141 14.1437 0.102554 30.5786 0Z" fill="white"/>
<path d="M30.5786 0C37.8351 0.0227899 44.2867 2.26826 49.9332 6.73641C49.7502 7.06016 49.4828 6.94755 49.2535 6.74245C49.0015 6.51455 48.6617 6.25582 48.234 5.96625C44.4234 3.3863 40.0458 1.48201 35.5293 0.866684C34.4958 0.725924 33.4642 0.514783 32.4165 0.613315C32.1732 0.635435 30.5283 0.376032 30.466 0.637445C30.4635 0.646957 30.4633 0.656905 30.4653 0.666526C30.4672 0.676147 30.4714 0.685186 30.4774 0.69295C30.4834 0.700715 30.4911 0.706998 30.5 0.71132C30.5088 0.715641 30.5185 0.717885 30.5283 0.71788C31.0632 0.725924 31.6222 0.796304 32.1209 0.81038C36.5864 0.944438 40.7998 2.05042 44.7612 4.12831C46.0663 4.81201 47.5765 5.77522 48.3587 6.39255C48.6804 6.64592 49.0236 6.87047 49.3883 7.0662C49.4345 7.09067 49.4887 7.09573 49.5391 7.08027L49.6095 7.06016C49.8467 6.99179 49.8655 7.03067 49.6658 7.17679C48.9633 7.69292 48.3808 8.32366 47.9183 9.06902C47.9022 9.09509 47.8804 9.11715 47.8545 9.1335C47.8286 9.14984 47.7993 9.16006 47.7688 9.16335C47.7384 9.16665 47.7076 9.16295 47.6787 9.15252C47.6499 9.1421 47.6239 9.12523 47.6026 9.10321C46.9833 8.46777 46.0422 8.02739 45.5173 7.6775C42.0204 5.34489 38.3064 4.2188 34.0614 3.57734C33.3455 3.46875 32.5432 3.51299 31.7831 3.47076C29.6697 3.35011 27.4014 3.63565 25.3202 3.99158C21.6644 4.61696 18.1816 6.1231 15.1452 8.24457C14.8744 8.23384 14.6431 8.32701 14.4514 8.52408C14.4675 8.63266 14.4206 8.66282 14.3106 8.61456C14.2852 8.60372 14.2579 8.59813 14.2302 8.59813C14.2026 8.59813 14.1752 8.60372 14.1498 8.61456C13.824 8.75734 12.8648 9.13136 12.6557 9.42495C12.6272 9.46512 12.5849 9.4931 12.5371 9.50337L11.5055 9.73462C11.4723 9.74204 11.4376 9.74076 11.4049 9.73091C11.3722 9.72105 11.3424 9.70294 11.3185 9.67831C11.0021 9.35792 10.6616 9.25938 10.297 9.38272C10.0664 9.46047 10.0456 9.42226 10.2346 9.2681L10.5242 9.03283C10.5286 9.02901 10.5323 9.02431 10.5348 9.01902C10.5373 9.01373 10.5387 9.00797 10.5389 9.0021C10.5391 8.99624 10.5381 8.99039 10.5359 8.98495C10.5337 8.97951 10.5304 8.97458 10.5262 8.97049L10.482 8.92826C10.4716 8.91854 10.4569 8.91415 10.4411 8.91603C10.4253 8.91791 10.4097 8.92591 10.3975 8.93831C9.72788 9.58783 8.92755 10.169 8.3444 10.8185C7.37114 11.903 6.55808 12.9393 5.90521 13.9273C5.78456 14.1096 5.65721 14.1411 5.52315 14.0218C5.48694 13.9895 5.46374 13.945 5.45783 13.8966C5.45191 13.8482 5.46369 13.7991 5.49097 13.7584C10.3271 6.62581 17.7814 1.87413 26.3075 0.575109C27.6306 0.374022 29.0141 0.207119 30.3393 0.189021C30.3694 0.188356 30.3992 0.180786 30.4263 0.166866C30.4535 0.152947 30.4773 0.133032 30.4961 0.108587L30.5786 0Z" fill="white"/>
<path d="M49.9332 6.73641C50.0766 6.8088 50.1832 6.91873 50.2529 7.0662C50.2692 7.10056 50.2753 7.13883 50.2707 7.17655C50.2661 7.21428 50.2509 7.24992 50.2268 7.27935L48.0309 9.96185C47.9979 10.0026 47.9498 10.0284 47.8971 10.0337C47.8444 10.039 47.7913 10.0233 47.7494 9.99C44.5642 7.4362 40.9795 5.69076 36.9953 4.7537C17.5924 0.189022 0.506023 17.4141 4.53782 36.7326C4.21206 36.6669 4.12827 36.8204 4.28646 37.193C4.46542 37.6153 4.41314 38.0859 4.58608 38.5544C4.95809 39.5719 5.21548 40.517 5.84086 41.9528C6.91667 44.4221 8.35847 46.6361 10.0677 48.7334C10.1468 48.8299 10.1247 48.8856 10.0013 48.9003C9.84584 48.9191 9.69301 48.7147 9.54287 48.287C9.53105 48.2528 9.51022 48.2222 9.48254 48.1985L9.05825 47.8486C9.01535 47.8138 8.99256 47.8238 8.98988 47.8788C8.98586 47.9331 9.02004 48.0256 9.0683 48.0718C9.44434 48.4398 11.4673 50.4205 9.31765 49.9158C8.97849 49.8354 8.76801 49.9272 8.68624 50.1913C8.67218 50.2369 8.67478 50.286 8.69356 50.3298C8.71235 50.3736 8.7461 50.4093 8.78879 50.4306C9.29017 50.6799 9.31095 50.9159 8.85113 51.1384C8.81169 51.1576 8.76715 51.1635 8.72431 51.1551C8.68147 51.1468 8.64268 51.1247 8.61385 51.0922C7.59635 49.95 6.67738 48.7341 5.85695 47.4445C5.75841 47.2896 5.56336 47.1569 5.45879 46.984C3.9493 44.4985 2.77898 41.8609 1.94782 39.0712C1.92369 38.9881 1.89553 38.8393 1.86336 38.6248C1.80907 38.2407 1.58586 37.8828 1.53358 37.549C1.22524 35.6051 1.03488 34.28 0.96249 33.5735C0.742635 31.4634 0.73124 29.3513 0.928305 27.2372C0.93903 27.1166 0.977236 26.9537 1.04292 26.7486C1.15955 26.3866 1.15553 25.7753 1.19173 25.5501C1.57513 23.1639 2.25213 20.8614 3.22271 18.6428L3.36146 18.9142C3.37703 18.9443 3.3999 18.9699 3.42798 18.9887C3.45606 19.0075 3.48843 19.019 3.5221 19.022C3.55578 19.025 3.58967 19.0195 3.62064 19.0059C3.65161 18.9923 3.67866 18.9712 3.69929 18.9444C3.87089 18.7245 4.01768 18.5925 4.13967 18.5483C4.66518 18.3619 4.94134 18.4678 4.96815 18.866C4.98021 19.0295 5.04992 19.0604 5.17728 18.9585C5.27782 18.878 5.4025 18.8459 5.5513 18.862C5.60399 18.8672 5.65599 18.852 5.69608 18.8197C5.81137 18.7312 5.88645 18.7299 5.9213 18.8157C5.96688 18.9297 6.01648 18.931 6.07011 18.8197C8.16543 14.5004 11.1904 10.9753 15.1452 8.24457C18.1816 6.1231 21.6644 4.61696 25.3202 3.99158C27.4014 3.63565 29.6697 3.35011 31.7831 3.47076C32.5432 3.51299 33.3455 3.46875 34.0614 3.57734C38.3064 4.2188 42.0204 5.34489 45.5173 7.6775C46.0422 8.02739 46.9833 8.46777 47.6026 9.10321C47.6239 9.12523 47.6499 9.1421 47.6787 9.15252C47.7076 9.16295 47.7384 9.16665 47.7688 9.16335C47.7993 9.16006 47.8286 9.14984 47.8545 9.1335C47.8804 9.11715 47.9022 9.09509 47.9183 9.06902C48.3808 8.32366 48.9633 7.69292 49.6658 7.17679C49.8655 7.03067 49.8467 6.99179 49.6095 7.06016L49.5391 7.08027C49.4887 7.09573 49.4345 7.09067 49.3883 7.0662C49.0236 6.87047 48.6804 6.64592 48.3587 6.39255C47.5765 5.77522 46.0663 4.81201 44.7612 4.12831C40.7998 2.05042 36.5864 0.944438 32.1209 0.81038C31.6222 0.796304 31.0632 0.725924 30.5283 0.71788C30.5185 0.717885 30.5088 0.715641 30.5 0.71132C30.4911 0.706998 30.4834 0.700715 30.4774 0.69295C30.4714 0.685186 30.4672 0.676147 30.4653 0.666526C30.4633 0.656905 30.4635 0.646957 30.466 0.637445C30.5283 0.376032 32.1732 0.635435 32.4165 0.613315C33.4642 0.514783 34.4958 0.725924 35.5293 0.866684C40.0458 1.48201 44.4234 3.3863 48.234 5.96625C48.6617 6.25582 49.0015 6.51455 49.2535 6.74245C49.4828 6.94755 49.7502 7.06016 49.9332 6.73641Z" fill="white"/>
<path d="M44.2706 32.2302C43.9998 32.2222 43.7806 32.3395 43.613 32.5821C39.4103 38.6657 35.2029 44.7479 30.9908 50.8288C30.9722 50.8556 30.9473 50.8775 30.9183 50.8926C30.8893 50.9076 30.8571 50.9154 30.8244 50.9152C30.7917 50.915 30.7596 50.9068 30.7308 50.8914C30.7019 50.876 30.6773 50.8538 30.659 50.8267C26.4684 44.7459 22.2596 38.6616 18.0328 32.5741C17.9121 32.3991 17.4416 32.0794 17.9322 32.0834C17.9624 32.0841 17.9921 32.0915 18.0192 32.105C18.0463 32.1186 18.0702 32.138 18.0891 32.1618C18.9175 33.2216 19.6193 34.3617 20.4277 35.4315C22.1309 37.6777 23.6431 40.1229 25.292 42.4213C26.8545 44.8343 28.5999 47.1348 30.1201 49.578C30.2904 49.8501 30.5002 50.0968 30.7495 50.318C30.7709 50.3369 30.7962 50.351 30.8235 50.3594C30.8508 50.3678 30.8796 50.3703 30.908 50.3666C30.9363 50.363 30.9636 50.3534 30.9879 50.3384C31.0123 50.3235 31.0331 50.3035 31.0491 50.2798L36.6192 42.0915C38.8124 39.043 40.9446 35.9584 43.0158 32.8375C43.1016 32.7088 43.2189 32.5942 43.3677 32.4936C43.4589 32.432 43.5487 32.3663 43.6372 32.2966C43.6621 32.2775 43.6821 32.2528 43.6956 32.2244C43.7091 32.1961 43.7158 32.165 43.715 32.1337C43.7142 32.1023 43.706 32.0716 43.6911 32.044C43.6762 32.0164 43.6549 31.9927 43.6291 31.9748C43.1291 31.6223 42.7913 31.2456 42.6156 30.8447C42.4199 30.397 42.1357 29.909 41.763 29.3808C41.6437 29.2119 41.5593 28.9961 41.5097 28.7333C41.5047 28.7055 41.4938 28.6791 41.4779 28.6558C41.4619 28.6326 41.4412 28.6131 41.4172 28.5986C41.1879 28.4618 41.1196 28.1622 40.9969 28.0014C40.4278 27.2593 40.0679 26.4309 39.5652 25.6708C38.7467 24.4321 38.055 22.9923 37.2124 21.7395C37.0569 21.5089 36.9068 21.2763 36.762 21.0417C36.7493 21.0201 36.7323 21.0011 36.7119 20.9859C36.6916 20.9707 36.6683 20.9596 36.6434 20.9533C36.4289 20.8943 36.2861 20.7689 36.215 20.5772C36.203 20.5451 36.1842 20.5176 36.1587 20.4948L35.4328 19.8694C35.4045 19.8447 35.3698 19.8283 35.3329 19.8223C35.2959 19.8163 35.2581 19.8207 35.2237 19.8352L34.1398 20.2977C34.1061 20.3122 34.0689 20.3169 34.0323 20.3112C33.9957 20.3055 33.9612 20.2897 33.9327 20.2655C33.5426 19.9378 33.438 19.4009 33.2088 19.0972C32.7758 18.5261 32.2858 18.004 31.7389 17.5308L31.033 16.7686C30.9967 16.7298 30.9465 16.707 30.8933 16.7051C30.8402 16.7032 30.7885 16.7224 30.7495 16.7586C30.1972 17.2653 29.738 17.8458 29.3721 18.5C29.1549 18.5509 28.9692 18.6615 28.8151 18.8318C28.7813 18.8681 28.7364 18.8909 28.6884 18.8961L28.0187 18.9726C27.97 18.978 27.9249 19.0012 27.8919 19.0378C27.859 19.0745 27.8404 19.1221 27.8398 19.1716L27.8337 19.6341C27.8335 19.6609 27.8279 19.6873 27.8173 19.7119C27.8067 19.7364 27.7913 19.7586 27.772 19.7772C27.7527 19.7957 27.7299 19.8102 27.705 19.8198C27.68 19.8295 27.6534 19.834 27.6266 19.8332C26.8357 19.8077 26.1393 20.043 25.5373 20.539C25.3376 20.7026 25.1037 20.9151 24.8355 21.1765C24.4595 21.5445 24.3067 22.0653 23.8965 22.4715C23.8589 22.5077 23.6592 22.761 23.2972 23.2316C23.2007 23.3562 23.1658 23.3274 23.1927 23.1451C23.1991 23.101 23.2204 23.0605 23.253 23.0305C23.3066 22.9782 23.3059 22.9433 23.251 22.9259C23.2325 22.9199 23.2157 22.9099 23.2017 22.8964C23.1877 22.883 23.1769 22.8666 23.1701 22.8484C23.1633 22.8302 23.1608 22.8108 23.1626 22.7915C23.1644 22.7721 23.1706 22.7535 23.1806 22.7369C25.6406 18.6307 28.0992 14.5238 30.5565 10.4163C30.6771 10.2132 30.6429 10.0724 30.5203 9.89549C30.6476 9.7306 30.7884 9.77685 30.9426 10.0342C35.3705 17.4168 39.8132 24.8155 44.2706 32.2302Z" fill="white"/>
<path d="M52.304 10.4465C52.5158 10.2373 52.7404 10.0329 52.9777 9.83315C53.0169 9.80032 53.0669 9.78349 53.1177 9.78611C53.1685 9.78872 53.2162 9.81058 53.2512 9.84723C54.1855 10.8138 55.0428 11.8454 55.8231 12.942C55.8541 12.9858 55.8667 13.0401 55.858 13.0928C55.8493 13.1456 55.8201 13.1926 55.7768 13.2235L52.9616 15.2404C52.9201 15.2698 52.8691 15.2824 52.8187 15.2756C52.7684 15.2689 52.7224 15.2434 52.6901 15.2042L50.4299 12.4553C50.3977 12.4165 50.3814 12.3668 50.3844 12.3164C50.3874 12.266 50.4094 12.2186 50.446 12.1839C50.7919 11.8501 51.1511 11.5189 51.5238 11.1905C51.7088 11.0283 51.9689 10.7803 52.304 10.4465Z" fill="white"/>
<path d="M30.5203 9.89549C30.6429 10.0724 30.6771 10.2132 30.5565 10.4163C28.0992 14.5238 25.6406 18.6307 23.1806 22.7369C23.1706 22.7535 23.1644 22.7721 23.1626 22.7915C23.1608 22.8108 23.1633 22.8302 23.1701 22.8484C23.1769 22.8666 23.1877 22.883 23.2017 22.8964C23.2157 22.9099 23.2325 22.9199 23.251 22.9259C23.3059 22.9433 23.3066 22.9782 23.253 23.0305C23.2204 23.0605 23.1991 23.101 23.1927 23.1451C23.1658 23.3274 23.2007 23.3562 23.2972 23.2316C23.6592 22.761 23.8589 22.5077 23.8965 22.4715C24.3067 22.0653 24.4595 21.5445 24.8355 21.1765C25.1037 20.9151 25.3376 20.7026 25.5373 20.539C26.1393 20.043 26.8357 19.8077 27.6266 19.8332C27.6534 19.834 27.68 19.8295 27.705 19.8198C27.7299 19.8102 27.7527 19.7957 27.772 19.7772C27.7913 19.7586 27.8067 19.7364 27.8173 19.7119C27.8279 19.6873 27.8335 19.6609 27.8337 19.6341L27.8398 19.1716C27.8404 19.1221 27.859 19.0745 27.8919 19.0378C27.9249 19.0012 27.97 18.978 28.0187 18.9726L28.6884 18.8961C28.7364 18.8909 28.7813 18.8681 28.8151 18.8318C28.9692 18.6615 29.1549 18.5509 29.3721 18.5C25.9723 24.1278 23.5888 28.1093 22.2214 30.4446C21.9385 30.9272 22.0766 31.1799 22.6356 31.2027L22.6859 31.2529C21.8876 31.4259 22.2717 31.8381 22.6919 32.0251C24.9696 33.0466 27.2492 34.0655 29.5309 35.0816C30.0397 35.3089 30.4378 35.4898 31.0129 35.3008C31.391 35.1781 31.7469 35.0877 32.1088 34.9167C34.4234 33.8168 36.7942 32.8636 39.1207 31.7918C39.1444 31.7812 39.1631 31.762 39.1732 31.7382C39.1833 31.7143 39.1839 31.6875 39.175 31.6632L39.1549 31.6109C39.1469 31.5885 39.1438 31.5647 39.146 31.541C39.1481 31.5174 39.1554 31.4946 39.1673 31.4742C39.1792 31.4538 39.1955 31.4364 39.2149 31.4232C39.2343 31.41 39.2564 31.4013 39.2796 31.3977C39.7233 31.3253 39.7729 31.08 39.4284 30.6617C39.3339 30.5471 39.3399 30.2133 39.2233 30.0243C36.699 25.8832 34.2042 21.7187 31.7389 17.5308C32.2858 18.004 32.7758 18.5261 33.2088 19.0972C33.438 19.4009 33.5426 19.9378 33.9327 20.2655C33.9612 20.2897 33.9957 20.3055 34.0323 20.3112C34.0689 20.3169 34.1061 20.3122 34.1398 20.2977L35.2237 19.8352C35.2581 19.8207 35.2959 19.8163 35.3329 19.8223C35.3698 19.8283 35.4045 19.8447 35.4328 19.8694L36.1587 20.4948C36.1842 20.5176 36.203 20.5451 36.215 20.5772C36.2861 20.7689 36.4289 20.8943 36.6434 20.9533C36.6683 20.9596 36.6916 20.9707 36.7119 20.9859C36.7323 21.0011 36.7493 21.0201 36.762 21.0417C36.9068 21.2763 37.0569 21.5089 37.2124 21.7395C38.055 22.9923 38.7467 24.4321 39.5652 25.6708C40.0679 26.4309 40.4278 27.2593 40.9969 28.0014C41.1196 28.1622 41.1879 28.4618 41.4172 28.5986C41.4412 28.6131 41.4619 28.6326 41.4779 28.6558C41.4938 28.6791 41.5047 28.7055 41.5097 28.7333C41.5593 28.9961 41.6437 29.2119 41.763 29.3808C42.1357 29.909 42.4199 30.397 42.6156 30.8447C42.7913 31.2456 43.1291 31.6223 43.6291 31.9748C43.6549 31.9927 43.6762 32.0164 43.6911 32.044C43.706 32.0716 43.7142 32.1023 43.715 32.1337C43.7158 32.165 43.7091 32.1961 43.6956 32.2244C43.6821 32.2528 43.6621 32.2775 43.6372 32.2966C43.5487 32.3663 43.4589 32.432 43.3677 32.4936C43.2189 32.5942 43.1016 32.7088 43.0158 32.8375C40.9446 35.9584 38.8124 39.043 36.6192 42.0915C36.5401 41.4976 36.2667 41.1927 35.7988 41.1766C35.3986 41.1645 34.7873 41.1886 34.6446 40.7563C34.5869 40.5834 34.6345 40.4399 34.7873 40.326C34.8101 40.3088 34.8291 40.2871 34.843 40.2622C34.8568 40.2372 34.8653 40.2096 34.8678 40.1812L34.8758 40.0987C34.8865 39.9633 34.8544 39.952 34.7793 40.0646C33.9964 41.2188 32.8247 42.853 31.2643 44.9671C31.1262 45.1547 30.97 45.2419 30.7957 45.2285C30.6335 45.2164 30.6295 45.2023 30.7837 45.1862C30.8815 45.1755 30.9144 45.1112 30.8822 44.9932C30.8747 44.9648 30.8733 44.9351 30.8781 44.9063C30.883 44.8775 30.894 44.8502 30.9104 44.8263L36.1648 37.2554C36.193 37.2129 36.2371 37.1833 36.2874 37.1729C36.8987 37.0429 37.0475 36.754 36.7338 36.3062C36.7148 36.2785 36.689 36.256 36.6587 36.2409C36.6285 36.2257 36.5948 36.2185 36.5609 36.2198C36.1024 36.2386 35.662 36.3411 35.2398 36.5274C33.8952 37.12 32.4413 37.7708 30.8782 38.48C30.8517 38.492 30.8229 38.498 30.7937 38.4977C30.7645 38.4973 30.7357 38.4906 30.7093 38.478C29.3218 37.8198 27.8726 37.1562 26.3618 36.4872C25.9167 36.2888 25.5722 36.1722 25.3282 36.1373C25.2779 36.1296 25.226 36.1418 25.1834 36.1715C24.6432 36.5549 24.7129 36.8116 25.3925 36.9417L25.4509 37.0845C25.3342 37.055 25.2189 37.0489 25.105 37.0664C25.0755 37.0712 25.0475 37.0824 25.0228 37.0992C24.9982 37.1159 24.9775 37.1379 24.9624 37.1634C24.9472 37.1889 24.9379 37.2174 24.9351 37.2469C24.9323 37.2763 24.936 37.306 24.9461 37.3338C25.0427 37.5979 25.1754 37.8379 25.3443 38.0537C25.6406 38.4304 25.8229 38.6757 25.8912 38.7897C26.3035 39.4794 26.8665 40.1028 27.2144 40.8247C27.3123 41.0284 27.4229 41.2268 27.5462 41.4199C27.569 41.4556 27.5771 41.4987 27.5688 41.54C27.5606 41.5813 27.5366 41.6176 27.5019 41.6411L27.4497 41.6753C27.4109 41.7018 27.3826 41.741 27.3698 41.7862C27.3569 41.8314 27.3603 41.8797 27.3793 41.9226C27.5455 42.3007 27.5107 42.3234 27.2747 41.991C27.2561 41.965 27.2314 41.9439 27.2027 41.9295C27.1739 41.9151 27.1421 41.9079 27.1098 41.9085H25.9616C25.9297 41.9092 25.8992 41.9212 25.8756 41.9422C25.8519 41.9632 25.8368 41.992 25.8329 42.0232L25.8289 42.0774C25.8266 42.0976 25.8196 42.1169 25.8084 42.1338C25.7972 42.1507 25.7821 42.1648 25.7645 42.1747C25.7468 42.1847 25.7271 42.1904 25.7068 42.1913C25.6866 42.1923 25.6664 42.1884 25.6479 42.18C25.5112 42.1183 25.3926 42.1988 25.292 42.4213C23.6431 40.1229 22.1309 37.6777 20.4277 35.4315C19.6193 34.3617 18.9175 33.2216 18.0891 32.1618C18.0702 32.138 18.0463 32.1186 18.0192 32.105C17.9921 32.0915 17.9624 32.0841 17.9322 32.0834C17.4416 32.0794 17.9121 32.3991 18.0328 32.5741C22.2596 38.6616 26.4684 44.7459 30.659 50.8267C30.6773 50.8538 30.7019 50.876 30.7308 50.8914C30.7596 50.9068 30.7917 50.915 30.8244 50.9152C30.8571 50.9154 30.8893 50.9076 30.9183 50.8926C30.9473 50.8775 30.9722 50.8556 30.9908 50.8288C35.2029 44.7479 39.4103 38.6657 43.613 32.5821C43.7806 32.3395 43.9998 32.2222 44.2706 32.2302L30.9928 51.4662C30.974 51.493 30.9489 51.5148 30.9199 51.5299C30.8909 51.545 30.8587 51.5529 30.8261 51.5529C30.7935 51.5529 30.7615 51.545 30.7327 51.5299C30.704 51.5148 30.6794 51.493 30.661 51.4662L17.2888 32.1538C17.2667 32.1222 17.2543 32.0847 17.2533 32.0458C17.2522 32.0068 17.2624 31.9682 17.2827 31.9346L30.5203 9.89549Z" fill="white"/>
<path d="M57.7937 16.3966C57.818 16.3837 57.8446 16.376 57.872 16.3738C57.8994 16.3716 57.9269 16.375 57.9529 16.3838C57.9789 16.3927 58.0028 16.4068 58.0232 16.4252C58.0435 16.4437 58.0599 16.4661 58.0712 16.4911L59.7121 20.1268C59.7233 20.1518 59.7293 20.179 59.7296 20.2065C59.7299 20.234 59.7245 20.2613 59.7137 20.2867C59.703 20.3122 59.6872 20.3352 59.6671 20.3544C59.6471 20.3736 59.6234 20.3885 59.5975 20.3983L56.2534 21.6329C56.2052 21.6503 56.1523 21.6489 56.1053 21.6291C56.0583 21.6094 56.0207 21.5727 56 21.5264L54.5602 18.313C54.5396 18.2663 54.5375 18.2136 54.5543 18.1654C54.5711 18.1173 54.6055 18.0773 54.6507 18.0536L57.7937 16.3966Z" fill="white"/>
<path d="M31.7389 17.5308C34.2042 21.7187 36.699 25.8832 39.2233 30.0243C39.3399 30.2133 39.3339 30.5471 39.4284 30.6617C39.7729 31.08 39.7233 31.3253 39.2796 31.3977C39.2564 31.4013 39.2343 31.41 39.2149 31.4232C39.1955 31.4364 39.1792 31.4538 39.1673 31.4742C39.1554 31.4946 39.1481 31.5174 39.146 31.541C39.1438 31.5647 39.1469 31.5885 39.1549 31.6109L39.175 31.6632C39.1839 31.6875 39.1833 31.7143 39.1732 31.7382C39.1631 31.762 39.1444 31.7812 39.1207 31.7918C36.7942 32.8636 34.4234 33.8168 32.1088 34.9167C31.7469 35.0877 31.391 35.1781 31.0129 35.3008C30.4378 35.4898 30.0397 35.3089 29.5309 35.0816C27.2492 34.0655 24.9696 33.0466 22.6919 32.0251C22.2717 31.8381 21.8876 31.4259 22.6859 31.2529L30.5625 34.7639C30.5878 34.7753 30.6154 34.7812 30.6434 34.7812C30.6715 34.7812 30.6994 34.7753 30.7254 34.7639L38.785 31.1846C38.811 31.173 38.8343 31.156 38.8533 31.1347C38.8722 31.1134 38.8865 31.0884 38.895 31.0612C38.9036 31.034 38.9063 31.0053 38.9029 30.977C38.8995 30.9487 38.8902 30.9214 38.8754 30.897L30.9868 17.756C30.9694 17.7262 30.9444 17.7015 30.9145 17.6844C30.8845 17.6672 30.8505 17.6582 30.8159 17.6582C30.7812 17.6582 30.747 17.6672 30.7167 17.6844C30.6864 17.7015 30.661 17.7262 30.6429 17.756L22.6578 31.0639C22.6433 31.0889 22.6356 31.118 22.6357 31.1484L22.6356 31.2027C22.0766 31.1799 21.9385 30.9272 22.2214 30.4446C23.5888 28.1093 25.9723 24.1278 29.3721 18.5C29.738 17.8458 30.1972 17.2653 30.7495 16.7586C30.7885 16.7224 30.8402 16.7032 30.8933 16.7051C30.9465 16.707 30.9967 16.7298 31.033 16.7686L31.7389 17.5308Z" fill="white"/>
<path d="M3.22271 18.6428C2.25213 20.8614 1.57513 23.1639 1.19173 25.5501C1.15553 25.7753 1.15955 26.3866 1.04292 26.7486C0.977236 26.9537 0.93903 27.1166 0.928305 27.2372C0.73124 29.3513 0.742635 31.4634 0.96249 33.5735C1.03488 34.28 1.22524 35.6051 1.53358 37.549C1.58586 37.8828 1.80907 38.2407 1.86336 38.6248C1.89553 38.8393 1.92369 38.9881 1.94782 39.0712C2.77898 41.8609 3.9493 44.4985 5.45879 46.984C5.56336 47.1569 5.75841 47.2896 5.85695 47.4445C6.67738 48.7341 7.59635 49.95 8.61385 51.0922C8.64268 51.1247 8.68147 51.1468 8.72431 51.1551C8.76715 51.1635 8.81169 51.1576 8.85113 51.1384C9.31095 50.9159 9.29017 50.6799 8.78879 50.4306C8.7461 50.4093 8.71235 50.3736 8.69356 50.3298C8.67478 50.286 8.67218 50.2369 8.68624 50.1913C8.76801 49.9272 8.97849 49.8354 9.31765 49.9158C11.4673 50.4205 9.44434 48.4398 9.0683 48.0718C9.02004 48.0256 8.98586 47.9331 8.98988 47.8788C8.99256 47.8238 9.01535 47.8138 9.05825 47.8486L9.48254 48.1985C9.51022 48.2222 9.53105 48.2528 9.54287 48.287C9.69301 48.7147 9.84584 48.9191 10.0013 48.9003C10.1247 48.8856 10.1468 48.8299 10.0677 48.7334C8.35847 46.6361 6.91667 44.4221 5.84086 41.9528C5.21548 40.517 4.95809 39.5719 4.58608 38.5544C4.41314 38.0859 4.46542 37.6153 4.28646 37.193C4.12827 36.8204 4.21206 36.6669 4.53782 36.7326C9.0864 56.4934 32.6236 64.3116 48.0933 51.2128C52.7384 47.2796 55.8834 41.8422 57.0658 35.884C57.7696 32.3422 57.7334 28.7387 56.9572 25.0735C56.9458 25.0215 56.9555 24.9672 56.9841 24.9223C57.0128 24.8775 57.0581 24.8458 57.11 24.8342L60.6532 24.046C60.6794 24.0402 60.7064 24.0397 60.7328 24.0443C60.7591 24.0489 60.7842 24.0585 60.8067 24.0727C60.8291 24.087 60.8484 24.1054 60.8635 24.127C60.8786 24.1487 60.8891 24.1731 60.8945 24.1988C64.7372 41.8884 52.9113 58.838 35.0508 61.3275C26.0964 62.5742 17.1279 59.7208 10.4116 53.7324C10.4478 53.4818 10.3935 53.288 10.2487 53.1513C4.61959 47.8694 1.42499 41.3777 0.664883 33.676C0.61059 33.1391 0.375318 31.3836 0.602546 30.9714C0.620989 30.9385 0.630031 30.9009 0.628687 30.8628C0.389394 26.7144 1.22189 22.2221 2.87684 18.4698C2.88639 18.4486 2.90044 18.4297 2.91803 18.4144C2.93561 18.3991 2.95631 18.3878 2.97868 18.3813C3.00106 18.3748 3.02457 18.3732 3.04761 18.3767C3.07065 18.3802 3.09266 18.3886 3.11211 18.4015C3.18584 18.4497 3.22271 18.5302 3.22271 18.6428Z" fill="white"/>
<path d="M36.6192 42.0915L31.0491 50.2798C31.0331 50.3035 31.0123 50.3235 30.9879 50.3384C30.9636 50.3534 30.9363 50.363 30.908 50.3666C30.8796 50.3703 30.8508 50.3678 30.8235 50.3594C30.7962 50.351 30.7709 50.3369 30.7495 50.318C30.5002 50.0968 30.2904 49.8501 30.1201 49.578C28.5999 47.1348 26.8545 44.8343 25.292 42.4213C25.3926 42.1988 25.5112 42.1183 25.6479 42.18C25.6664 42.1884 25.6866 42.1923 25.7068 42.1913C25.7271 42.1904 25.7468 42.1847 25.7645 42.1747C25.7821 42.1648 25.7972 42.1507 25.8084 42.1338C25.8196 42.1169 25.8266 42.0976 25.8289 42.0774L25.8329 42.0232C25.8368 41.992 25.8519 41.9632 25.8756 41.9422C25.8992 41.9212 25.9297 41.9092 25.9616 41.9085H27.1098C27.1421 41.9079 27.1739 41.9151 27.2027 41.9295C27.2314 41.9439 27.2561 41.965 27.2747 41.991C27.5107 42.3234 27.5455 42.3007 27.3793 41.9226C27.3603 41.8797 27.3569 41.8314 27.3698 41.7862C27.3826 41.741 27.4109 41.7018 27.4497 41.6753L27.5019 41.6411C27.5366 41.6176 27.5606 41.5813 27.5688 41.54C27.5771 41.4987 27.569 41.4556 27.5462 41.4199C27.4229 41.2268 27.3123 41.0284 27.2144 40.8247C26.8665 40.1028 26.3035 39.4794 25.8912 38.7897C25.8229 38.6757 25.6406 38.4304 25.3443 38.0537C25.1754 37.8379 25.0427 37.5979 24.9461 37.3338C24.936 37.306 24.9323 37.2763 24.9351 37.2469C24.9379 37.2174 24.9472 37.1889 24.9624 37.1634C24.9775 37.1379 24.9982 37.1159 25.0228 37.0992C25.0475 37.0824 25.0755 37.0712 25.105 37.0664C25.2189 37.0489 25.3342 37.055 25.4509 37.0845L30.5062 44.3638C30.5245 44.3904 30.549 44.4122 30.5777 44.4271C30.6063 44.4421 30.6383 44.4498 30.6707 44.4496C30.7032 44.4494 30.7352 44.4413 30.764 44.426C30.7928 44.4107 30.8175 44.3887 30.836 44.3618L35.6078 37.4625C35.8249 37.1475 35.7593 37.0677 35.4107 37.2232L30.9466 39.212C30.9213 39.2234 30.8937 39.2293 30.8657 39.2293C30.8376 39.2293 30.8097 39.2234 30.7837 39.212L25.4911 36.8432C25.4797 36.8383 25.4672 36.8367 25.4552 36.8385C25.4431 36.8402 25.4318 36.8453 25.4227 36.8532C25.3946 36.8773 25.3845 36.9068 25.3925 36.9417C24.7129 36.8116 24.6432 36.5549 25.1834 36.1715C25.226 36.1418 25.2779 36.1296 25.3282 36.1373C25.5722 36.1722 25.9167 36.2888 26.3618 36.4872C27.8726 37.1562 29.3218 37.8198 30.7093 38.478C30.7357 38.4906 30.7645 38.4973 30.7937 38.4977C30.8229 38.498 30.8517 38.492 30.8782 38.48C32.4413 37.7708 33.8952 37.12 35.2398 36.5274C35.662 36.3411 36.1024 36.2386 36.5609 36.2198C36.5948 36.2185 36.6285 36.2257 36.6587 36.2409C36.689 36.256 36.7148 36.2785 36.7338 36.3062C37.0475 36.754 36.8987 37.0429 36.2874 37.1729C36.2371 37.1833 36.193 37.2129 36.1648 37.2554L30.9104 44.8263C30.894 44.8502 30.883 44.8775 30.8781 44.9063C30.8733 44.9351 30.8747 44.9648 30.8822 44.9932C30.9144 45.1112 30.8815 45.1755 30.7837 45.1862C30.6295 45.2023 30.6335 45.2164 30.7957 45.2285C30.97 45.2419 31.1262 45.1547 31.2643 44.9671C32.8247 42.853 33.9964 41.2188 34.7793 40.0646C34.8544 39.952 34.8865 39.9633 34.8758 40.0987L34.8678 40.1812C34.8653 40.2096 34.8568 40.2372 34.843 40.2622C34.8291 40.2871 34.8101 40.3088 34.7873 40.326C34.6345 40.4399 34.5869 40.5834 34.6446 40.7563C34.7873 41.1886 35.3986 41.1645 35.7988 41.1766C36.2667 41.1927 36.5401 41.4976 36.6192 42.0915Z" fill="white"/>
</svg>
